<svg width="97" height="22" viewBox="0 0 97 22" fill="none" xmlns="http://www.w3.org/2000/svg">
<path d="M5.16 21.592C3.672 21.592 2.56 21.072 1.824 20.032C1.104 18.976 0.744 17.384 0.744 15.256V6.37602C0.744 4.47202 1.168 3.03202 2.016 2.05602C2.864 1.08002 4.128 0.592023 5.808 0.592023C7.168 0.592023 8.224 0.864023 8.976 1.40802C9.728 1.95202 10.248 2.74402 10.536 3.78402C10.824 4.82402 10.968 6.16002 10.968 7.79202H6.936V5.94402C6.936 5.44802 6.864 5.06402 6.72 4.79202C6.592 4.52002 6.352 4.38402 6 4.38402C5.216 4.38402 4.824 4.89602 4.824 5.92002V15.904C4.824 16.528 4.904 17 5.064 17.32C5.224 17.64 5.504 17.8 5.904 17.8C6.304 17.8 6.584 17.64 6.744 17.32C6.904 17 6.984 16.528 6.984 15.904V12.952H5.88V9.40002H10.92V21.4H9.264L8.568 19.672C7.832 20.952 6.696 21.592 5.16 21.592ZM13.7604 0.784024H20.0964C21.1044 0.784024 21.8804 1.01602 22.4244 1.48002C22.9844 1.92802 23.3604 2.56802 23.5524 3.40002C23.7444 4.21602 23.8404 5.26402 23.8404 6.54402C23.8404 7.71202 23.6884 8.62402 23.3844 9.28002C23.0804 9.93602 22.5524 10.392 21.8004 10.648C22.4244 10.776 22.8724 11.088 23.1444 11.584C23.4324 12.08 23.5764 12.752 23.5764 13.6L23.5284 21.4H19.4964V13.336C19.4964 12.76 19.3844 12.392 19.1604 12.232C18.9364 12.072 18.5284 11.992 17.9364 11.992V21.4H13.7604V0.784024ZM18.9444 8.41602C19.5204 8.41602 19.8084 7.79202 19.8084 6.54402C19.8084 6.00002 19.7844 5.59202 19.7364 5.32002C19.6884 5.04802 19.6004 4.86402 19.4724 4.76802C19.3444 4.65602 19.1604 4.60002 18.9204 4.60002H17.9604V8.41602H18.9444ZM25.8459 21.4L27.8379 0.784024H34.8219L36.7899 21.4H32.8779L32.5899 18.064H30.0939L29.8539 21.4H25.8459ZM30.4059 14.776H32.2779L31.3659 4.28802H31.1739L30.4059 14.776ZM39.2464 0.784024H44.8384C46.3424 0.784024 47.4304 1.15202 48.1024 1.88802C48.7904 2.62402 49.1344 3.82402 49.1344 5.48802V6.40002C49.1344 8.36802 48.4304 9.54402 47.0224 9.92802C47.8864 10.152 48.4944 10.672 48.8464 11.488C49.1984 12.304 49.3744 13.384 49.3744 14.728C49.3744 16.92 49.0464 18.584 48.3904 19.72C47.7344 20.84 46.5504 21.4 44.8384 21.4H39.2464V0.784024ZM44.1184 8.53602C44.4704 8.53602 44.7104 8.40802 44.8384 8.15202C44.9664 7.88002 45.0304 7.50402 45.0304 7.02402V4.96002C45.0304 4.28802 44.7344 3.95202 44.1424 3.95202H43.2784V8.53602H44.1184ZM43.6864 17.776C44.7584 17.776 45.2944 17.264 45.2944 16.24V13.672C45.2944 13.048 45.1984 12.576 45.0064 12.256C44.8304 11.936 44.5104 11.776 44.0464 11.776H43.2784V17.752L43.6864 17.776ZM56.8267 21.592C54.9547 21.592 53.6027 21.128 52.7707 20.2C51.9387 19.272 51.5227 17.776 51.5227 15.712V13.696H55.5787V16.264C55.5787 17.288 55.9067 17.8 56.5627 17.8C56.9307 17.8 57.1867 17.696 57.3307 17.488C57.4747 17.264 57.5467 16.896 57.5467 16.384C57.5467 15.712 57.4667 15.16 57.3067 14.728C57.1467 14.28 56.9387 13.912 56.6827 13.624C56.4427 13.32 56.0027 12.856 55.3627 12.232L53.5867 10.456C52.2107 9.11202 51.5227 7.62402 51.5227 5.99202C51.5227 4.23202 51.9227 2.89602 52.7227 1.98402C53.5387 1.05602 54.7227 0.592023 56.2747 0.592023C58.1307 0.592023 59.4667 1.08802 60.2827 2.08002C61.0987 3.05602 61.5067 4.59202 61.5067 6.68802H57.3067L57.2827 5.27202C57.2827 5.00002 57.2027 4.78402 57.0427 4.62402C56.8987 4.46402 56.6907 4.38402 56.4187 4.38402C56.0987 4.38402 55.8587 4.47202 55.6987 4.64802C55.5387 4.82402 55.4587 5.06402 55.4587 5.36802C55.4587 6.04002 55.8427 6.73602 56.6107 7.45602L59.0107 9.76002C59.5707 10.304 60.0347 10.824 60.4028 11.32C60.7708 11.8 61.0668 12.376 61.2908 13.048C61.5148 13.704 61.6267 14.488 61.6267 15.4C61.6267 17.432 61.2507 18.976 60.4987 20.032C59.7627 21.072 58.5387 21.592 56.8267 21.592ZM76.8776 21.4V0.784024H85.1336V4.76802H81.0776V8.77602H84.9656V12.664H81.0776V17.392H85.3976V21.4H76.8776ZM87.9683 21.4V0.784024H96.2243V4.76802H92.1683V8.77602H96.0563V12.664H92.1683V17.392H96.4883V21.4H87.9683Z" fill="white"/>
<path d="M64.1933 0.784024H69.7853C71.2893 0.784024 72.3773 1.15202 73.0493 1.88802C73.7373 2.62402 74.0813 3.82402 74.0813 5.48802V6.40002C74.0813 8.36802 73.3773 9.54402 71.9693 9.92802C72.8333 10.152 73.4413 10.672 73.7933 11.488C74.1453 12.304 74.3213 13.384 74.3213 14.728C74.3213 16.92 73.9933 18.584 73.3373 19.72C72.6813 20.84 71.4973 21.4 69.7853 21.4H64.1933V0.784024ZM69.0653 8.53602C69.4173 8.53602 69.6573 8.40802 69.7853 8.15202C69.9133 7.88002 69.9773 7.50402 69.9773 7.02402V4.96002C69.9773 4.28802 69.6813 3.95202 69.0893 3.95202H68.2253V8.53602H69.0653ZM68.6333 17.776C69.7053 17.776 70.2413 17.264 70.2413 16.24V13.672C70.2413 13.048 70.1453 12.576 69.9533 12.256C69.7773 11.936 69.4573 11.776 68.9933 11.776H68.2253V17.752L68.6333 17.776Z" fill="#EC1D2E"/>
</svg>
